<?xml version="1.0" encoding="UTF-8"?>
<svg width="120px" height="120px" viewBox="0 0 120 120" version="1.1" xmlns="http://www.w3.org/2000/svg" xmlns:xlink="http://www.w3.org/1999/xlink">
    <!-- Generator: Sketch 54.1 (76490) - https://sketchapp.com -->
    <title>js</title>
    <desc>Created with Sketch.</desc>
    <g id="Page-1" stroke="none" stroke-width="1" fill="none" fill-rule="evenodd">
        <g id="twitter-top" transform="translate(-1615.000000, -440.000000)" fill-rule="nonzero">
            <g id="js" transform="translate(1615.000000, 440.000000)">
                <rect id="background" fill="#F7DF1E" x="0" y="0" width="120" height="120"></rect>
                <path d="M31.9354839,100.075755 L41.1514723,94.5519347 C42.9294389,97.6740219 44.5468365,100.315478 48.4262969,100.315478 C52.1449494,100.315478 54.4894472,98.8748173 54.4894472,93.2709632 L54.4894472,55.1612903 L65.8064516,55.1612903 L65.8064516,93.4295168 C65.8064516,105.038484 58.9356778,110.322581 48.9113489,110.322581 C39.8580799,110.322581 34.6030311,105.678852 31.9354839,100.074808" id="j" fill="#000000"></path>
                <path d="M71.6129032,98.8069006 L80.900276,93.4919164 C83.34512,97.4382249 86.5225502,100.337199 92.144102,100.337199 C96.8702705,100.337199 99.8839405,98.0016908 99.8839405,94.7803758 C99.8839405,90.9149976 96.7881496,89.5458459 91.5735902,87.2916966 L88.7227172,86.0829775 C80.4932837,82.6208231 75.034288,78.2722429 75.034288,69.0918806 C75.034288,60.6363213 81.5521862,54.1935484 91.7368688,54.1935484 C98.9880757,54.1935484 104.202394,56.6902508 107.949855,63.2132401 L99.0689925,68.8500416 C97.1135026,65.3876492 94.9956975,64.0187355 91.7368688,64.0187355 C88.3964008,64.0187355 86.2778732,66.1124522 86.2778732,68.8500416 C86.2778732,72.2324557 88.3964008,73.6016074 93.284403,75.6955622 L96.1357577,76.9033292 C105.831327,81.0105464 111.290323,85.1977418 111.290323,94.6192291 C111.290323,104.766472 103.224408,110.322581 92.3885382,110.322581 C81.7968633,110.322581 74.9528896,105.330128 71.6129032,98.8069006" id="s" fill="#000000"></path>
            </g>
        </g>
    </g>
</svg>