<?xml version="1.0" encoding="UTF-8"?>
<svg width="523px" height="180px" viewBox="0 0 523 180" version="1.1" xmlns="http://www.w3.org/2000/svg" xmlns:xlink="http://www.w3.org/1999/xlink">
    <!-- Generator: Sketch 53 (72520) - https://sketchapp.com -->
    <title>alemohamad + swift + js</title>
    <desc>Created with Sketch.</desc>
    <g id="alemohamad-+-swift-+-js" stroke="none" stroke-width="1" fill="none" fill-rule="evenodd">
        <g id="js" transform="translate(376.000000, 30.000000)" fill-rule="nonzero">
            <rect id="background" fill="#F7DF1E" x="0" y="0" width="120" height="120"></rect>
            <path d="M31.9354839,100.075755 L41.1514723,94.5519347 C42.9294389,97.6740219 44.5468365,100.315478 48.4262969,100.315478 C52.1449494,100.315478 54.4894472,98.8748173 54.4894472,93.2709632 L54.4894472,55.1612903 L65.8064516,55.1612903 L65.8064516,93.4295168 C65.8064516,105.038484 58.9356778,110.322581 48.9113489,110.322581 C39.8580799,110.322581 34.6030311,105.678852 31.9354839,100.074808" id="j" fill="#000000"></path>
            <path d="M71.6129032,98.8069006 L80.900276,93.4919164 C83.34512,97.4382249 86.5225502,100.337199 92.144102,100.337199 C96.8702705,100.337199 99.8839405,98.0016908 99.8839405,94.7803758 C99.8839405,90.9149976 96.7881496,89.5458459 91.5735902,87.2916966 L88.7227172,86.0829775 C80.4932837,82.6208231 75.034288,78.2722429 75.034288,69.0918806 C75.034288,60.6363213 81.5521862,54.1935484 91.7368688,54.1935484 C98.9880757,54.1935484 104.202394,56.6902508 107.949855,63.2132401 L99.0689925,68.8500416 C97.1135026,65.3876492 94.9956975,64.0187355 91.7368688,64.0187355 C88.3964008,64.0187355 86.2778732,66.1124522 86.2778732,68.8500416 C86.2778732,72.2324557 88.3964008,73.6016074 93.284403,75.6955622 L96.1357577,76.9033292 C105.831327,81.0105464 111.290323,85.1977418 111.290323,94.6192291 C111.290323,104.766472 103.224408,110.322581 92.3885382,110.322581 C81.7968633,110.322581 74.9528896,105.330128 71.6129032,98.8069006" id="s" fill="#000000"></path>
        </g>
        <polygon id="+" fill="#000000" points="351.18 87.97 357.15 87.97 357.15 91.18 351.18 91.18 351.18 97.15 347.97 97.15 347.97 91.18 342 91.18 342 87.97 347.97 87.97 347.97 82 351.18 82"></polygon>
        <g id="swift" transform="translate(203.000000, 30.000000)" fill-rule="nonzero">
            <path d="M118.7734,32.9002 C118.7664,31.7056 118.7532,30.5116 118.7202,29.3156 C118.6506,26.714 118.4968,24.0888 118.0344,21.515 C117.5652,18.9012 116.7982,16.4708 115.5894,14.0964 C114.4028,11.7646 112.8516,9.6308 111.0012,7.7804 C109.1512,5.93 107.0174,4.379 104.6846,3.1918 C102.3122,1.9844 99.8814,1.2176 97.27,0.7484 C94.6948,0.2846 92.0696,0.1318 89.466,0.0614 C88.2706,0.029 87.0764,0.0154 85.8814,0.008 C84.463,0 83.0436,0 81.6256,0 L50.1824,0 L37.1562,0 C35.7368,0 34.319,0 32.901,0.0082 C31.7056,0.0156 30.51,0.0292 29.3164,0.0616 C28.6656,0.0792 28.0134,0.102 27.3608,0.1334 C25.4032,0.2278 23.4426,0.4008 21.5122,0.7486 C19.5536,1.1006 17.6964,1.6198 15.8896,2.3668 C15.2874,2.6156 14.6906,2.89 14.0974,3.1918 C12.3478,4.0822 10.7098,5.1772 9.22,6.4496 C8.7234,6.8738 8.2432,7.3176 7.7808,7.7802 C5.93,9.6306 4.3788,11.7644 3.1922,14.0962 C1.9834,16.4706 1.2174,18.901 0.7478,21.5148 C0.2858,24.0886 0.1322,26.7138 0.0622,29.3154 C0.0294,30.5114 0.0156,31.7054 0.0078,32.9 C-0.0012,34.3188 0,35.7378 0,37.1562 L0,56.52 L0,81.625 C0,83.0448 -0.0014,84.4624 0.0078,85.8822 C0.0156,87.0768 0.0294,88.2708 0.0622,89.4648 C0.1322,92.0678 0.2856,94.6936 0.7478,97.2662 C1.2174,99.8792 1.9834,102.3118 3.1922,104.6856 C4.3788,107.018 5.93,109.1512 7.7808,111.0008 C9.6302,112.852 11.7646,114.4028 14.0976,115.5908 C16.4702,116.7984 18.9008,117.5642 21.5128,118.0334 C24.0864,118.4966 26.7136,118.6506 29.3166,118.7202 C30.5102,118.752 31.7058,118.7662 32.9012,118.773 C34.3192,118.7832 35.737,118.7818 37.1564,118.7818 L81.6256,118.7818 C83.0436,118.7818 84.463,118.7832 85.8812,118.773 C87.0762,118.7662 88.2704,118.752 89.4658,118.7202 C92.0694,118.6506 94.6946,118.4964 97.2698,118.0334 C99.8812,117.5642 102.312,116.7982 104.6844,115.5908 C107.0172,114.403 109.151,112.852 111.001,111.0008 C112.8514,109.151 114.4028,107.018 115.5892,104.6856 C116.798,102.3118 117.565,99.8794 118.0342,97.2662 C118.4966,94.6936 118.6504,92.0678 118.72,89.4648 C118.7528,88.2708 118.766,87.077 118.7732,85.8822 C118.7824,84.4624 118.7816,83.0448 118.7816,81.625 L118.7816,37.1562 C118.7818,35.7378 118.7824,34.3188 118.7734,32.9002 Z" id="Path" fill="#F05138"></path>
            <path d="M94.1212,73.3214 C94.1184,73.3178 94.1158,73.3152 94.1128,73.3118 C94.2442,72.8646 94.3798,72.4202 94.4948,71.9618 C99.4248,52.32 87.3926,29.098 67.0316,16.871 C75.9542,28.9668 79.8994,43.6176 76.3942,56.43 C76.0816,57.5728 75.7058,58.6696 75.2904,59.7356 C74.8396,59.4394 74.2716,59.1032 73.5088,58.6826 C73.5088,58.6826 53.255,46.1772 31.3032,24.0582 C30.7272,23.4776 43.0088,41.6122 56.947,56.338 C50.3802,52.6526 32.0794,39.3372 20.4938,28.7334 C21.9172,31.1072 23.6102,33.393 25.4712,35.5936 C35.1462,47.8634 47.7636,63.0024 62.8798,74.6274 C52.259,81.127 37.2516,81.6324 22.3094,74.6342 C18.6136,72.9022 15.1392,70.8124 11.923,68.438 C18.248,78.555 27.9894,87.2838 39.8456,92.3796 C53.9846,98.4558 68.0448,98.0438 78.5168,92.4792 L78.5086,92.4912 C78.5564,92.461 78.6172,92.428 78.6668,92.3974 C79.0968,92.1662 79.5236,91.9308 79.941,91.6822 C84.9724,89.0706 94.9104,86.421 100.2446,96.7998 C101.551,99.3398 104.327,85.879 94.1212,73.3214 Z" id="Path" fill="#FFFFFF"></path>
        </g>
        <polygon id="+" fill="#000000" points="178.18 87.97 184.15 87.97 184.15 91.18 178.18 91.18 178.18 97.15 174.97 97.15 174.97 91.18 169 91.18 169 87.97 174.97 87.97 174.97 82 178.18 82"></polygon>
        <g id="alemohamad" transform="translate(27.000000, 20.000000)">
            <path d="M61.5888618,139.855122 C59.372425,139.855122 57.253085,139.329268 55.6219062,138.375366 L5.97595957,109.353659 C2.6099347,107.38439 0,102.832195 0,98.9892683 L0,40.8639024 C0,37.0185366 2.60701449,32.4663415 5.967929,30.5004878 L55.5931909,1.4795122 C57.2238829,0.525609756 59.3366525,-2.50254045e-14 61.5530893,-2.50254045e-14 C63.7697695,-2.50254045e-14 65.8857026,0.525609756 67.5168814,1.48 L117.161125,30.4997561 C120.527149,32.4687805 123.135381,37.0207317 123.135381,40.8639024 L123.135381,98.9887805 C123.135381,102.834146 120.52861,107.386341 117.167938,109.352195 L67.5424332,138.375366 C65.9114977,139.329268 63.8052987,139.855122 61.5888618,139.855122" id="Fill-1" fill="#4FA5CB"></path>
            <path d="M37.2591601,60.0687805 C35.8813092,60.0687805 34.5966617,60.3302439 33.4054607,60.852439 C32.2140164,61.375122 31.1807499,62.0795122 30.3059047,62.9656098 C29.4305727,63.8519512 28.737267,64.892439 28.2255008,66.0863415 C27.7132479,67.2804878 27.4574864,68.5492683 27.4574864,69.8926829 C27.4574864,71.2360976 27.7132479,72.505122 28.2255008,73.6990244 C28.737267,74.8934146 29.4305727,75.9336585 30.3059047,76.8197561 C31.1807499,77.7060976 32.2140164,78.4107317 33.4054607,78.9329268 C34.5966617,79.4553659 35.8813092,79.7165854 37.2591601,79.7165854 C38.6180296,79.7165854 39.8931865,79.4553659 41.0848742,78.9329268 C42.2760751,78.4107317 43.3142086,77.7014634 44.1985445,76.8056098 C45.0826371,75.91 45.7805665,74.8702439 46.2928194,73.685122 C46.8048289,72.5002439 47.0608337,71.2360976 47.0608337,69.8926829 C47.0608337,68.5492683 46.8048289,67.2853659 46.2928194,66.1002439 C45.7805665,64.9156098 45.0826371,63.875122 44.1985445,62.9795122 C43.3142086,62.0839024 42.2760751,61.375122 41.0848742,60.852439 C39.8931865,60.3302439 38.6180296,60.0687805 37.2591601,60.0687805 M47.0608337,82.6553659 L47.0608337,82.0956098 C45.6644882,83.215122 44.1469542,84.0734146 42.5089616,84.6704878 C40.8707257,85.2678049 39.1205485,85.5660976 37.2591601,85.5660976 C32.9399311,85.5660976 29.2539002,84.0363415 26.2008242,80.9760976 C23.1474318,77.9160976 21.6211371,74.2214634 21.6211371,69.8926829 C21.6211371,65.5641463 23.1474318,61.8695122 26.2008242,58.8092683 C29.2539002,55.7492683 32.9399311,54.2192683 37.2591601,54.2192683 C41.5409131,54.2192683 45.2269439,55.7492683 48.317496,58.8092683 C51.3703287,61.8695122 52.8971101,65.5641463 52.8971101,69.8926829 L52.8971101,82.6553659 C52.8971101,83.4578049 52.61312,84.1434146 52.0453831,84.712439 C51.4774029,85.2817073 50.7931012,85.5660976 49.9929646,85.5660976 C49.1736032,85.5660976 48.4802975,85.2817073 47.9125607,84.712439 C47.3443371,84.1434146 47.0608337,83.4578049 47.0608337,82.6553659" id="Fill-2" fill="#FFFFFF"></path>
            <path d="M101.514414,82.6273171 C101.514414,83.4485366 101.230424,84.1434146 100.662687,84.712439 C100.094707,85.2817073 99.4104051,85.5660976 98.6102684,85.5660976 C97.7909071,85.5660976 97.102225,85.2817073 96.5437355,84.712439 C95.985246,84.1434146 95.7061229,83.4485366 95.7061229,82.6273171 L95.7061229,66.7019512 C95.7061229,65.8063415 95.5338307,64.957561 95.1894897,64.155122 C94.844662,63.3529268 94.374752,62.6485366 93.7792732,62.0419512 C93.1830644,61.4358537 92.4807547,60.955122 91.670884,60.6004878 C90.8610134,60.2463415 89.9905484,60.0687805 89.0599759,60.0687805 C88.1476547,60.0687805 87.2910607,60.2463415 86.4906808,60.6004878 C85.6903008,60.955122 84.987261,61.4309756 84.3825349,62.0280488 C83.7773221,62.6253659 83.3025451,63.325122 82.9582041,64.1270732 C82.6136197,64.9295122 82.4418142,65.7880488 82.4418142,66.7019512 L82.4418142,82.6273171 C82.4418142,83.4485366 82.1575808,84.1434146 81.5900873,84.712439 C81.0218637,85.2817073 80.3378053,85.5660976 79.5374254,85.5660976 C78.718064,85.5660976 78.0247583,85.2817073 77.4570215,84.712439 C76.8890413,84.1434146 76.6052945,83.4485366 76.6052945,82.6273171 L76.6052945,66.7019512 C76.6052945,65.7880488 76.4281353,64.9295122 76.0747903,64.1270732 C75.7209586,63.325122 75.2461817,62.6253659 74.6507029,62.0280488 C74.0547374,61.4309756 73.3565646,60.955122 72.5561846,60.6004878 C71.7555613,60.2463415 70.8992107,60.0687805 69.9871328,60.0687805 C69.0748116,60.0687805 68.2182177,60.2414634 67.418081,60.5865854 C66.6174577,60.9319512 65.914418,61.4078049 65.3096918,62.0139024 C64.7047223,62.6204878 64.2299454,63.325122 63.8856044,64.1270732 C63.54102,64.9295122 63.3689712,65.7880488 63.3689712,66.7019512 L63.3689712,82.6273171 C63.3689712,83.4485366 63.0849811,84.1434146 62.5172442,84.712439 C61.949264,85.2817073 61.2649623,85.5660976 60.4648256,85.5660976 C59.6454643,85.5660976 58.9521586,85.2817073 58.3844217,84.712439 C57.8161982,84.1434146 57.5326948,83.4485366 57.5326948,82.6273171 L57.5326948,57.13 C57.5326948,56.3280488 57.8161982,55.6421951 58.3844217,55.0729268 C58.9521586,54.5039024 59.636217,54.2192683 60.4368403,54.2192683 C61.0882898,54.2192683 61.6655173,54.4012195 62.1682795,54.765122 C62.6707984,55.1287805 63.0151394,55.6095122 63.201546,56.2063415 C65.1933703,54.8817073 67.4553137,54.2192683 69.9871328,54.2192683 C71.8485212,54.2192683 73.5986984,54.5878049 75.2369344,55.324878 C76.8751703,56.0621951 78.3087484,57.1768293 79.5374254,58.6692683 C82.1249718,55.7026829 85.2992364,54.2192683 89.0599759,54.2192683 C90.7536958,54.2192683 92.3593227,54.5507317 93.8768568,55.2129268 C95.3941475,55.8753659 96.7157844,56.7709756 97.8422541,57.8997561 C98.9684805,59.0287805 99.8620637,60.3534146 100.523004,61.8739024 C101.183701,63.394878 101.514414,65.0043902 101.514414,66.7019512 L101.514414,82.6273171 Z" id="Fill-3" fill="#FFFFFF"></path>
        </g>
    </g>
</svg>