<?xml version="1.0" encoding="UTF-8"?>
<svg width="576px" height="147px" viewBox="0 0 576 147" version="1.1" xmlns="http://www.w3.org/2000/svg" xmlns:xlink="http://www.w3.org/1999/xlink">
    <!-- Generator: Sketch 54.1 (76490) - https://sketchapp.com -->
    <title>TypeScript + Sass</title>
    <desc>Created with Sketch.</desc>
    <g id="TypeScript-+-Sass" stroke="none" stroke-width="1" fill="none" fill-rule="evenodd">
        <g id="TypeScript_Logo" transform="translate(14.000000, 34.000000)" fill="#000000" fill-rule="nonzero">
            <polygon id="Path" points="40.8979592 7.12101064 23.8954368 7.12101064 23.8954368 59.5744681 17.0025224 59.5744681 17.0025224 7.12101064 0 7.12101064 0 0.85106383 40.7447833 0.85106383 40.7447833 7.12101064"></polygon>
            <path d="M74.0398925,17.8805395 L54.6007391,66.8978805 C51.0523222,75.6840077 46.2696733,80 39.9442345,80 C38.2471655,80 36.7043756,79.8458574 35.4701436,79.5375723 L35.4701436,73.5260116 C36.8586546,73.9884393 38.2471655,74.2967245 39.4813975,74.2967245 C42.8755354,74.2967245 45.4982783,72.2928709 47.1953473,68.1310212 L50.5894852,60.1156069 L34.0816327,17.8805395 L41.6413034,17.8805395 L53.0579491,50.4046243 C53.2122281,50.867052 53.5207861,51.9460501 53.9836231,53.6416185 L54.2921811,53.6416185 C54.4464601,53.0250482 54.7550181,51.9460501 55.063576,50.5587669 L67.0973377,17.8805395 L74.0398925,17.8805395 L74.0398925,17.8805395 Z M85.4565382,54.1040462 L85.3022592,54.1040462 L85.3022592,79.6917148 L78.5139834,79.6917148 L78.5139834,18.0346821 L85.3022592,18.0346821 L85.3022592,25.433526 L85.4565382,25.433526 C88.8506761,19.8843931 93.6333249,16.955684 100.113043,16.955684 C105.512808,16.955684 109.832619,18.805395 112.918199,22.6589595 C116.003779,26.5125241 117.546569,31.4450867 117.546569,37.9190751 C117.546569,45.0096339 115.8495,50.7129094 112.455362,54.8747592 C109.061224,59.0366089 104.278576,61.194605 98.2616948,61.194605 C92.707651,61.194605 88.5421181,58.8824663 85.4565382,54.1040462 Z M85.3022592,36.9942197 L85.3022592,42.8516378 C85.3022592,46.3969171 86.3822121,49.3256262 88.6963971,51.7919075 C91.010582,54.2581888 93.7876039,55.4913295 97.3360208,55.4913295 C101.501554,55.4913295 104.587134,53.9499037 107.055598,50.7129094 C109.524061,47.4759152 110.604014,43.1599229 110.604014,37.61079 C110.604014,32.8323699 109.524061,29.2870906 107.364156,26.5125241 C105.20425,23.8921002 102.272949,22.504817 98.5702528,22.504817 C94.5589989,22.504817 91.473419,23.8921002 89.0049551,26.6666667 C86.5364911,29.4412331 85.3022592,32.8323699 85.3022592,36.9942197 L85.3022592,36.9942197 Z M159.356177,40.6936416 L129.426052,40.6936416 C129.580331,45.4720617 130.814563,49.017341 133.283027,51.6377649 C135.751491,54.2581888 138.99135,55.4913295 143.311162,55.4913295 C148.09381,55.4913295 152.413622,53.9499037 156.424876,50.7129094 L156.424876,57.0327553 C152.72218,59.8073218 147.785252,61.0404624 141.614093,61.0404624 C135.597212,61.0404624 130.968842,59.1907514 127.574704,55.3371869 C124.180566,51.4836224 122.483497,46.088632 122.483497,39.1522158 C122.483497,32.5240848 124.334845,27.283237 128.037541,23.1213873 C131.740237,18.9595376 136.368607,16.955684 141.922651,16.955684 C147.476694,16.955684 151.796506,18.805395 154.727807,22.3506744 C157.813387,25.8959538 159.201898,30.8285164 159.201898,37.3025048 L159.201898,40.6936416 L159.356177,40.6936416 L159.356177,40.6936416 Z M152.413622,34.9903661 C152.413622,31.1368015 151.487948,28.0539499 149.6366,25.8959538 C147.785252,23.7379576 145.162509,22.6589595 141.922651,22.6589595 C138.682792,22.6589595 136.060049,23.7379576 133.745864,26.0500963 C131.585958,28.3622351 130.197447,31.2909441 129.580331,34.9903661 L152.413622,34.9903661 L152.413622,34.9903661 Z M163.058873,58.1117534 L163.058873,53.4874759 C167.378685,56.2620424 171.544218,57.495183 176.018309,57.495183 C180.646678,57.495183 184.195095,56.5703276 186.50928,54.566474 C188.977744,52.716763 190.057697,49.9421965 190.057697,46.5510597 C190.057697,43.4682081 189.286302,41.1560694 187.589233,39.3063584 C186.046443,37.4566474 182.498026,34.9903661 177.098262,31.9075145 C171.081381,28.3622351 167.224406,25.433526 165.681616,23.1213873 C164.138826,20.8092486 163.213152,18.0346821 163.213152,14.9518304 C163.213152,10.7899807 164.910221,7.24470135 168.15008,4.31599229 C171.389939,1.38728324 175.709751,0 181.109515,0 C184.657932,0 188.206349,0.616570328 191.754766,1.84971098 L191.754766,6.16570328 C188.206349,4.62427746 184.503653,3.85356455 180.646678,3.85356455 C176.635425,3.85356455 173.395566,4.93256262 171.081381,6.93641618 C168.767196,8.94026975 167.532964,11.5606936 167.532964,14.6435453 C167.532964,17.7263969 168.304359,20.0385356 170.001428,21.8882466 C171.544218,23.7379576 175.092635,26.0500963 180.492399,29.132948 C186.046443,32.2157996 189.749139,34.9903661 191.600487,37.4566474 C193.451835,39.9229287 194.377509,42.6974952 194.377509,45.9344894 C194.377509,50.4046243 192.834719,54.1040462 189.59486,57.0327553 C186.50928,59.9614644 182.035189,61.3487476 176.172588,61.3487476 C174.166961,61.3487476 171.852776,61.0404624 169.075754,60.4238921 C166.60729,59.6531792 164.601663,58.8824663 163.058873,58.1117534 L163.058873,58.1117534 Z M230.170236,58.265896 C227.084656,60.1156069 223.227681,61.194605 218.907869,61.194605 C213.199546,61.194605 208.571177,59.1907514 205.02276,55.3371869 C201.474343,51.3294798 199.777274,46.2427746 199.777274,39.7687861 C199.777274,32.9865125 201.782901,27.5915222 205.794155,23.2755299 C209.805409,18.9595376 214.896615,16.8015414 221.067775,16.8015414 C224.307634,16.8015414 227.393214,17.4181118 230.478794,18.805395 L230.478794,23.1213873 C227.393214,21.2716763 224.153355,20.3468208 220.450659,20.3468208 C215.513731,20.3468208 211.502478,22.1965318 208.416898,25.7418112 C205.331318,29.2870906 203.788528,33.911368 203.788528,39.6146435 C203.788528,45.1637765 205.177039,49.4797688 207.954061,52.8709056 C210.731083,56.2620424 214.433778,57.8034682 219.062148,57.8034682 C223.227681,57.8034682 226.930377,56.7244701 230.170236,54.4123314 L230.170236,58.265896 L230.170236,58.265896 Z M255.780549,21.8882466 C254.546317,20.9633911 253.003527,20.5009634 251.306458,20.5009634 C247.91232,20.5009634 245.135299,22.1965318 242.975393,25.5876686 C240.661208,28.9788054 239.581255,33.911368 239.581255,40.2312139 L239.581255,60.1156069 L235.878559,60.1156069 L235.878559,17.8805395 L239.581255,17.8805395 L239.581255,27.283237 L239.735534,27.283237 C240.661208,24.0462428 242.203998,21.5799615 244.363904,19.7302505 C246.52381,17.8805395 248.837994,17.1098266 251.615016,17.1098266 C253.157806,17.1098266 254.546317,17.4181118 255.780549,17.8805395 L255.780549,21.8882466 L255.780549,21.8882466 Z M262.260267,7.24470135 C261.488872,7.24470135 260.717477,6.93641618 260.100361,6.31984586 C259.483245,5.70327553 259.174687,4.93256262 259.174687,4.00770713 C259.174687,3.08285164 259.483245,2.31213873 260.100361,1.84971098 C260.717477,1.23314066 261.488872,1.07899807 262.260267,1.07899807 C263.185941,1.07899807 263.803057,1.38728324 264.574452,1.84971098 C265.191568,2.46628131 265.500126,3.08285164 265.500126,4.00770713 C265.500126,4.93256262 265.191568,5.70327553 264.574452,6.31984586 C263.803057,6.93641618 263.185941,7.24470135 262.260267,7.24470135 Z M260.408919,60.2697495 L260.408919,18.0346821 L264.265894,18.0346821 L264.265894,60.2697495 L260.408919,60.2697495 Z M277.533888,52.716763 L277.379609,52.716763 L277.379609,79.6917148 L273.522634,79.6917148 L273.522634,18.0346821 L277.379609,18.0346821 L277.379609,26.8208092 L277.533888,26.8208092 C279.076678,23.7379576 281.236584,21.2716763 284.013605,19.5761079 C286.790627,17.8805395 289.876207,17.1098266 293.270345,17.1098266 C298.67011,17.1098266 302.835643,18.9595376 305.921223,22.6589595 C309.006803,26.3583815 310.395314,31.4450867 310.395314,37.7649326 C310.395314,44.8554913 308.698245,50.5587669 305.149828,54.8747592 C301.75569,59.1907514 297.12732,61.3487476 291.418997,61.3487476 C285.247837,61.194605 280.619468,58.4200385 277.533888,52.716763 Z M277.379609,36.9942197 L277.379609,42.38921 C277.379609,46.7052023 278.76812,50.2504817 281.390863,53.3333333 C284.013605,56.416185 287.562022,57.9576108 291.881834,57.9576108 C296.201646,57.9576108 299.750063,56.1078998 302.372806,52.4084778 C304.995549,48.7090559 306.38406,43.7764933 306.38406,37.7649326 C306.38406,32.5240848 305.149828,28.2080925 302.681364,25.1252408 C300.2129,22.0423892 296.818762,20.5009634 292.807508,20.5009634 C287.87058,20.5009634 284.013605,22.1965318 281.390863,25.433526 C278.76812,28.6705202 277.379609,32.5240848 277.379609,36.9942197 Z M334,59.6531792 C331.994373,60.5780347 330.143025,61.0404624 328.445956,61.0404624 C322.120517,61.0404624 319.034937,57.3410405 319.034937,49.7880539 L319.034937,21.4258189 L311.475267,21.4258189 L311.475267,17.8805395 L319.034937,17.8805395 L319.034937,6.93641618 C319.652053,6.7822736 320.269169,6.47398844 320.886285,6.31984586 C321.503401,6.16570328 322.120517,5.85741811 322.737633,5.70327553 L322.737633,18.0346821 L333.845721,18.0346821 L333.845721,21.5799615 L322.737633,21.5799615 L322.737633,49.4797688 C322.737633,52.4084778 323.20047,54.566474 324.126144,55.7996146 C325.051818,57.0327553 326.594608,57.8034682 328.754514,57.8034682 C330.297304,57.8034682 331.994373,57.3410405 333.845721,56.2620424 L333.845721,59.6531792 L334,59.6531792 L334,59.6531792 Z" id="Shape"></path>
        </g>
        <g id="Sass_Logo_Color" transform="translate(400.000000, 13.000000)" fill="#CD6799" fill-rule="nonzero">
            <path d="M137.772531,68.9833116 C132.190628,69.0125386 127.339341,70.3569783 123.277119,72.3444109 C121.786663,69.3924889 120.296207,66.7620634 120.033185,64.8330847 C119.740939,62.5826095 119.390244,61.2089429 119.740939,58.5200634 C120.091635,55.831184 121.669764,52.0024535 121.64054,51.710184 C121.611315,51.4179145 121.289844,50.0442478 118.075136,50.0150209 C114.860427,49.9857939 112.084088,50.6287869 111.762617,51.4763684 C111.441147,52.32395 110.82743,54.2529287 110.418285,56.2403613 C109.863017,59.1630563 103.988868,69.5970776 100.628036,75.0625173 C99.5467254,72.9289499 98.6115375,71.0584251 98.4069651,69.5678506 C98.1147189,67.3173755 97.7640234,65.9437088 98.1147189,63.2548294 C98.4654144,60.56595 100.043544,56.7372195 100.014319,56.44495 C99.9850947,56.1526805 99.6636239,54.7790138 96.4489154,54.7497868 C93.234207,54.7205599 90.4578679,55.3635528 90.1363971,56.2111344 C89.8149262,57.0587159 89.4642308,59.0461485 88.7920644,60.9751273 C88.1198981,62.904106 80.316924,80.3233684 78.2712005,84.8243187 C77.2191141,87.1332478 76.3131508,88.9745457 75.6702091,90.2313045 C75.6702091,90.2313045 75.6702091,90.2313045 75.6702091,90.2313045 C75.6702091,90.2313045 75.6409845,90.3189854 75.5533106,90.4651201 C74.9980428,91.5465173 74.676572,92.1310563 74.676572,92.1310563 C74.676572,92.1310563 74.676572,92.1310563 74.676572,92.1602832 C74.2382026,92.9494109 73.7706087,93.6800846 73.5368117,93.6800846 C73.361464,93.6800846 73.0399931,91.5757442 73.595261,88.7115031 C74.7642458,82.6615244 77.5405849,73.2504464 77.5113603,72.9289499 C77.5113603,72.7535882 78.0374035,71.116879 75.6994337,70.2692975 C73.4199132,69.4217159 72.6016238,70.8246095 72.3970514,70.8246095 C72.1924791,70.8246095 72.046356,71.3214677 72.046356,71.3214677 C72.046356,71.3214677 74.5888981,60.7413117 67.1950687,60.7413117 C62.5775784,60.7413117 56.2066108,65.7975741 53.0503516,70.3569783 C51.0630773,71.4383755 46.8255071,73.7473045 42.2956907,76.2315953 C40.571438,77.1960847 38.788736,78.160574 37.1229326,79.0666095 C37.0060341,78.9497017 36.8891356,78.8035669 36.7722371,78.6866591 C27.8295027,69.1294464 11.2883666,62.3780209 11.9897575,49.5473897 C12.2527791,44.8710776 13.8601334,32.5957585 43.7569218,17.6900139 C68.3640536,5.56082948 87.9445504,8.92192877 91.3346066,16.3748011 C96.1858938,27.013411 80.8429672,46.7708294 55.417546,49.6350705 C45.7149715,50.7164677 40.6298872,46.9754181 39.3440038,45.5725245 C37.9996712,44.1111769 37.7950989,44.0234961 37.2982803,44.3157656 C36.4799909,44.7541698 37.0060341,46.0693826 37.2982803,46.8292833 C38.0581205,48.8167159 41.185155,52.32395 46.4748116,54.04834 C51.1507512,55.5681415 62.5191292,56.415723 76.2839262,51.0964181 C91.685302,45.1341202 103.725846,28.5624394 100.189667,14.679638 C96.6534878,0.592247933 73.2737901,-4.05483716 51.1507512,3.80721247 C37.9996712,8.48352452 23.7380556,15.848716 13.4802133,25.4351557 C1.29354586,36.8336663 -0.635279202,46.7416025 0.153785595,50.8918294 C2.98857394,65.6222124 23.2996863,75.2086521 31.4241313,82.310801 C31.0149865,82.5446166 30.6350665,82.7492052 30.3135956,82.9245669 C26.2513731,84.9412265 10.7623234,93.0370917 6.9046733,101.600588 C2.52097999,111.303936 7.60606423,118.25995 10.9668958,119.195212 C21.4000859,122.08868 32.1255222,116.886283 37.8827727,108.29356 C43.6400233,99.7008364 42.9386324,88.5361414 40.2791918,83.4214251 C40.2499671,83.3629712 40.2207425,83.3045173 40.1622933,83.2460634 C41.2143797,82.6322974 42.2956907,81.9893045 43.3477771,81.3755386 C45.4227252,80.1480067 47.4684488,79.0081556 49.2219261,78.0728932 C48.228289,80.7909996 47.4976734,84.035191 47.1469779,88.7115031 C46.7086086,94.2061698 48.9589045,101.337546 51.9105913,104.143333 C53.2256993,105.370865 54.7746043,105.400092 55.7682415,105.400092 C59.2167469,105.400092 60.7656518,102.535851 62.4899046,99.1455244 C64.5940773,94.9952974 66.4936778,90.1728506 66.4936778,90.1728506 C66.4936778,90.1728506 64.1264834,103.20807 70.5559003,103.20807 C72.89387,103.20807 75.2610644,100.168468 76.3131508,98.6194393 C76.3131508,98.6486662 76.3131508,98.6486662 76.3131508,98.6486662 C76.3131508,98.6486662 76.3716001,98.5609854 76.4884985,98.3563967 C76.7222955,97.9764463 76.8684186,97.7426307 76.8684186,97.7426307 C76.8684186,97.7426307 76.8684186,97.7134038 76.8684186,97.6841768 C77.8036065,96.0474676 79.9077793,92.3356449 83.0348139,86.1687584 C87.0678117,78.2190279 90.9546865,68.2818648 90.9546865,68.2818648 C90.9546865,68.2818648 91.305382,70.7077017 92.5035915,74.7410209 C93.2049824,77.1084038 94.6662135,79.7096024 95.8351984,82.2231201 C94.9000105,83.5383329 94.315518,84.2690067 94.315518,84.2690067 C94.315518,84.2690067 94.315518,84.2690067 94.3447427,84.2982336 C93.5849025,85.2919499 92.7666131,86.3733471 91.8606498,87.4255173 C88.675166,91.2250208 84.8759651,95.5798364 84.3499219,96.8365953 C83.7362048,98.3271697 83.8823279,99.4085669 85.0513128,100.285375 C85.8988269,100.928368 87.4185072,101.016049 88.9674122,100.928368 C91.8314251,100.72378 93.8479241,100.022333 94.8415612,99.5839286 C96.3904662,99.0286166 98.2023928,98.181035 99.8974209,96.9242761 C103.024455,94.6153471 104.924056,91.3127017 104.748708,86.9578861 C104.661034,84.5612762 103.871969,82.1646662 102.907557,79.9141911 C103.199803,79.5050138 103.462825,79.0958364 103.755071,78.6866591 C108.694032,71.4676024 112.522458,63.5470989 112.522458,63.5470989 C112.522458,63.5470989 112.873153,65.9729358 114.071363,70.0062549 C114.655855,72.0521414 115.854065,74.2733896 116.906151,76.436184 C112.259436,80.2064606 109.395423,84.5905031 108.372561,87.4547442 C106.53141,92.7740492 107.963417,95.1706591 110.681306,95.7259712 C111.908741,95.9890137 113.662218,95.4044747 114.948101,94.8491627 C116.58468,94.3230776 118.513505,93.4170421 120.354656,92.0726024 C123.481691,89.7636733 126.491827,86.5487088 126.316479,82.1938932 C126.228805,80.2064606 125.702762,78.2482549 124.972147,76.3485031 C128.917471,74.7117939 134.002555,73.8057584 140.490421,74.5656592 C154.401341,76.2023684 157.148456,84.8827726 156.622412,88.5361414 C156.096369,92.1895102 153.173907,94.1769428 152.209494,94.7907088 C151.245082,95.4044747 150.923611,95.6090634 151.011285,96.0474676 C151.128183,96.6904605 151.595777,96.6612336 152.414067,96.5443258 C153.553827,96.3397371 159.720222,93.5924038 159.983244,86.8702052 C160.421613,78.2774818 152.238719,68.8956308 137.772531,68.9833116 Z M30.4597187,105.166276 C25.8422284,110.193312 19.4128116,112.093063 16.6364725,110.485581 C13.655561,108.761191 14.8245459,101.337546 20.4941226,96.0182407 C23.942628,92.7740492 28.3847706,89.7636733 31.3364574,87.9223754 C32.0086237,87.5131981 33.0022608,86.9286591 34.2004704,86.1979854 C34.4050427,86.0810776 34.5219412,86.0226237 34.5219412,86.0226237 L34.5219412,86.0226237 C34.7557382,85.8764889 34.9895351,85.7303542 35.2233321,85.5842194 C37.2982803,93.1832265 35.311006,99.8761981 30.4597187,105.166276 Z M64.0680341,82.310801 C62.4606799,86.2272123 59.0998484,96.2520563 57.0541248,95.6967442 C55.3006475,95.229113 54.2193365,87.6301059 56.7034294,80.1187797 C57.9600881,76.3485031 60.6195287,71.8475528 62.1684337,70.0939358 C64.6817512,67.2881485 67.4580903,66.3528861 68.1302566,67.4927372 C68.9777707,68.9833116 65.0616713,79.8557372 64.0680341,82.310801 Z M91.8022005,95.5798364 C91.1300342,95.9305598 90.4870925,96.1643754 90.1948463,95.9890137 C89.990274,95.8721059 90.4870925,95.4044747 90.4870925,95.4044747 C90.4870925,95.4044747 93.9648226,91.6634251 95.3383798,89.968262 C96.1274446,88.9745457 97.0626325,87.8054676 98.0562697,86.4902549 C98.0562697,86.6071627 98.0562697,86.7532974 98.0562697,86.8702052 C98.0562697,91.3419286 93.7310256,94.3523045 91.8022005,95.5798364 Z M113.194624,90.6989357 C112.697805,90.3482123 112.785479,89.1791343 114.451283,85.5257655 C115.094224,84.093645 116.613905,81.697035 119.214896,79.388106 C119.507142,80.3233684 119.711715,81.2294038 119.68249,82.0769854 C119.653265,87.7177868 115.620268,89.8221272 113.194624,90.6989357 Z" id="Shape"></path>
        </g>
        <polygon id="+" fill="#000000" points="375.089109 71.9108911 381 71.9108911 381 75.0891089 375.089109 75.0891089 375.089109 81 371.910891 81 371.910891 75.0891089 366 75.0891089 366 71.9108911 371.910891 71.9108911 371.910891 66 375.089109 66"></polygon>
    </g>
</svg>